<?xml version="1.0" encoding="UTF-8"?>
<svg width="21px" height="24px" viewBox="0 0 21 24" version="1.1" xmlns="http://www.w3.org/2000/svg" xmlns:xlink="http://www.w3.org/1999/xlink">
    <!-- Generator: Sketch 41.2 (35397) - http://www.bohemiancoding.com/sketch -->
    <title>QQico</title>
    <desc>Created with Sketch.</desc>
    <defs></defs>
    <g id="Page-1" stroke="none" stroke-width="1" fill="none" fill-rule="evenodd">
        <g id="pc-登录" transform="translate(-760.000000, -312.000000)" fill="#36A9DF">
            <path d="M779.485947,327.035424 C779.274,326.358194 778.979685,325.551856 778.681196,324.774033 L778.681196,324.774033 C778.681196,324.774033 778.679668,324.770094 778.677198,324.763685 C778.528512,324.376479 778.379003,323.99668 778.23796,323.643572 C778.186105,323.512524 778.141776,323.401583 778.113791,323.333737 C777.903843,322.811836 777.721763,322.3686 777.604061,322.078284 C777.603943,322.078342 777.603767,322.078342 777.603649,322.078401 C777.612233,321.802665 777.618406,321.524694 777.618406,321.241138 C777.618406,316.631814 775.442381,312.000325 770.091508,312.000031 C764.740576,312.000325 762.564611,316.631814 762.564611,321.241138 C762.564611,321.524694 762.570725,321.802665 762.579309,322.078401 C762.579133,322.078342 762.579015,322.078342 762.578897,322.078284 C762.471601,322.340733 762.312685,322.725235 762.128724,323.17923 C762.127842,323.181347 762.126901,323.183581 762.126078,323.185697 C762.086452,323.282176 762.037125,323.404699 761.983801,323.538452 C761.830235,323.920837 761.665322,324.337911 761.501291,324.765508 C761.499763,324.769329 761.498763,324.772034 761.498763,324.772034 C761.202979,325.543273 760.911016,326.34673 760.696953,327.035424 C759.676552,330.319685 760.007141,331.678789 760.25889,331.709185 C760.799134,331.774444 762.361718,329.236905 762.361718,329.236905 C762.361718,330.706304 763.118259,332.623759 764.755039,334.008438 C764.127842,334.195927 763.416513,334.469018 762.910251,334.84282 C762.476893,335.162768 762.530746,335.489007 762.608882,335.62082 C762.951818,336.199455 768.490003,335.990154 770.090156,335.809955 C771.690309,335.990154 777.231493,336.199455 777.574429,335.62082 C777.652564,335.489007 777.706359,335.162768 777.273001,334.84282 C776.766739,334.468959 776.055175,334.19581 775.428036,334.008438 C777.064758,332.623701 777.82124,330.706304 777.82124,329.236905 C777.82124,329.236905 779.383883,331.774444 779.924126,331.709185 C780.175817,331.678789 780.504643,330.289231 779.485947,327.035424" id="QQico"></path>
        </g>
    </g>
</svg>