<?xml version="1.0" encoding="UTF-8"?>
<svg width="24px" height="20px" viewBox="0 0 24 20" version="1.1" xmlns="http://www.w3.org/2000/svg" xmlns:xlink="http://www.w3.org/1999/xlink">
    <!-- Generator: Sketch 41.2 (35397) - http://www.bohemiancoding.com/sketch -->
    <title>微博ico</title>
    <desc>Created with Sketch.</desc>
    <defs></defs>
    <g id="Page-1" stroke="none" stroke-width="1" fill="none" fill-rule="evenodd">
        <g id="pc-登录" transform="translate(-758.000000, -385.000000)" fill="#EE3F17">
            <path d="M775.263135,389.774294 C774.800529,389.838042 774.375909,389.522142 774.30976,389.066522 C774.244048,388.610683 774.565187,388.188247 775.0243,388.123189 C776.897429,387.858157 777.900143,388.733594 778.330439,389.279159 C779.032535,390.167476 779.217228,391.396581 778.801996,392.410429 C778.669916,392.734406 778.353362,392.931106 778.021089,392.931106 C777.914988,392.931106 777.809543,392.911676 777.704752,392.869979 C777.273365,392.697074 777.065094,392.21089 777.240181,391.784087 C777.425311,391.326939 777.329253,390.720246 777.002875,390.306324 C776.640911,389.848302 776.037493,389.664482 775.263135,389.774294 M768.093067,397.181887 C767.735033,397.181887 767.444239,397.469624 767.444239,397.823729 C767.444239,398.17827 767.735033,398.464697 768.093067,398.464697 C768.451319,398.464697 768.741239,398.17827 768.741239,397.823729 C768.741239,397.470061 768.451319,397.181887 768.093067,397.181887 M767.225708,399.005459 C767.050184,398.373005 766.341975,398.014753 765.644682,398.204904 C764.948698,398.395055 764.525825,399.061348 764.700913,399.694675 C764.877747,400.326256 765.585737,400.684508 766.28303,400.495012 C766.979668,400.303988 767.401668,399.637913 767.225708,399.005459 M767.790921,401.902042 C765.633111,402.263351 763.630958,401.073324 763.318552,399.244731 C763.005054,397.416792 764.500283,395.640158 766.657874,395.278631 C768.815684,394.918195 770.816964,396.107567 771.130243,397.936378 C771.442868,399.765627 769.947639,401.540733 767.790921,401.902042 M767.153882,393.348303 C763.168352,393.715725 760.142091,396.182012 760.395553,398.85657 C760.646177,401.531782 764.080466,403.402074 768.065341,403.034434 C772.050871,402.667667 775.076259,400.20138 774.824325,397.526386 C774.573046,394.851391 771.138539,392.9811 767.153882,393.348303 M775.322298,394.141654 C775.322298,394.141654 779.014851,394.232473 779.014851,397.339073 C779.014851,399.591849 776.338547,404.220312 767.783717,404.220312 C760.983908,404.220312 758,400.657437 758,397.917385 C758,393.410741 766.121478,385.828934 769.444645,388.204402 C770.337766,388.842969 770.521585,390.64078 769.383518,391.522985 C778.460554,388.629895 775.322298,394.141654 775.322298,394.141654 M781.59226,393.325162 C781.459307,393.649576 781.143844,393.846058 780.811353,393.846058 C780.705471,393.846058 780.598934,393.826628 780.494798,393.78493 C780.062974,393.612026 779.85514,393.125405 780.030446,392.698602 C780.594567,391.32039 780.320147,389.566896 779.348653,388.336482 C778.608788,387.400354 777.158096,386.364893 774.450572,386.747378 C773.987966,386.811126 773.562473,386.49479 773.497634,386.039606 C773.43214,385.582894 773.753061,385.160458 774.213921,385.095837 C776.948078,384.710296 779.242989,385.496006 780.67578,387.308225 C782.008147,388.993823 782.376005,391.411645 781.59226,393.325162" id="微博ico"></path>
        </g>
    </g>
</svg>