<?xml version="1.0" encoding="UTF-8"?>
<svg width="26px" height="24px" viewBox="0 0 26 24" version="1.1" xmlns="http://www.w3.org/2000/svg" xmlns:xlink="http://www.w3.org/1999/xlink">
    <!-- Generator: Sketch 41.2 (35397) - http://www.bohemiancoding.com/sketch -->
    <title>网校-ico</title>
    <desc>Created with Sketch.</desc>
    <defs></defs>
    <g id="Page-1" stroke="none" stroke-width="1" fill="none" fill-rule="evenodd">
        <g id="pc-登录" transform="translate(-838.000000, -383.000000)" fill="#E68523">
            <path d="M859.661241,399.887202 C859.39137,400.26806 859.172677,400.522253 858.865028,400.944169 C858.127175,401.956279 857.232061,402.743893 856.230795,403.419415 C854.48653,404.596279 852.508757,405.344043 850.362639,405.578828 C847.847923,405.853948 845.288521,405.37861 843.155284,404.357522 C842.624763,404.103605 842.089684,403.64909 841.532262,403.252486 C841.274893,403.069361 840.90177,402.734328 840.703485,402.561838 C840.524642,402.406305 839.979583,401.802126 839.874708,401.802126 C839.911589,402.257021 840.61087,402.955404 840.876147,403.252486 C841.205862,403.62174 841.697811,404.11141 842.015716,404.357522 C842.954202,405.084048 844.030196,405.792929 845.073696,406.138011 C846.427296,406.585654 848.033811,407.038235 849.666708,406.976112 C851.282133,406.914644 852.554202,406.617562 853.963917,406.291335 C853.825684,406.068117 852.997011,406.188635 852.997011,405.807882 C853.401834,405.671789 853.866536,405.857712 854.279957,405.813752 C854.586467,405.781153 854.800982,405.706771 855.158185,405.650172 C855.61819,405.577274 855.910887,405.332336 856.243054,405.186299 C856.70931,404.981349 857.019756,404.816699 857.44996,404.457493 C857.670484,404.273366 858.508239,403.252486 858.694852,403.252486 C858.780389,402.894523 859.224648,402.429614 859.422001,402.097274 C859.69788,401.632779 859.959842,401.140002 860.15053,400.628958 C860.448821,399.829637 860.628665,399.07469 860.628665,398.245292 C860.219595,398.429004 859.916401,399.527064 859.661241,399.887202 M862.424349,391.476946 C861.552165,390.982063 860.435629,391.280112 859.92089,392.138345 C859.281557,393.204359 859.505224,394.473838 859.614588,395.63461 C859.736936,396.932716 859.218467,398.015824 858.531756,399.08467 C858.309022,399.431375 856.983117,401.725326 856.347963,401.188002 C855.814887,400.73701 857.220009,399.757361 857.457039,399.545712 C858.089603,398.9809 859.040832,398.010886 858.694852,397.071191 C858.248487,397.171024 857.901885,397.781522 857.531906,398.022143 C857.270634,398.192077 857.004251,398.26242 856.726507,398.417953 C855.520982,399.093096 854.944084,400.272376 854.626835,401.627945 C854.349333,402.813614 853.643353,403.480261 852.513557,403.770471 C851.735785,403.970241 850.688556,404.120526 849.78512,404.133338 C847.816602,404.161274 845.582047,403.782972 843.984061,403.010759 C842.684124,402.382581 841.392303,401.347749 840.405575,400.040975 C839.694588,399.09945 839.22695,398.022592 838.871232,396.903605 C838.766185,396.573096 838.201373,393.341694 838.251687,393.341694 C837.924942,393.668474 838.00996,395.029464 838.00996,395.482702 C838.00996,396.275565 838.128165,397.017976 838.302001,397.793159 C838.604055,399.14006 839.245011,400.356394 840.085978,401.457355 C842.43266,404.529458 846.097408,405.562149 849.854565,405.289896 C851.830576,405.146725 853.698432,404.468405 855.241615,403.59781 C855.755042,403.308152 856.483779,402.747312 856.9855,402.320112 C857.15868,402.172624 858.07327,401.524348 858.07327,401.215076 C858.442006,401.120733 858.723031,400.487444 858.926772,400.189982 C859.337396,399.590569 859.731342,398.992607 860.048901,398.336664 C860.704844,396.981717 860.83586,395.667105 860.746317,394.18684 C860.71693,393.701798 860.614369,392.967778 861.130524,392.702846 C861.465903,392.530667 861.970179,392.663686 862.14809,392.996371 C862.41758,393.500509 861.991106,394.335122 861.768648,394.785838 C861.679278,394.966892 860.938559,395.998961 860.973989,396.069752 C862.700331,395.803784 864.295485,392.538679 862.424349,391.476946 M850.669252,394.376733 C849.848003,394.902869 848.651871,395.633643 847.540896,395.620831 C847.654818,396.334477 848.953235,396.744653 849.474708,396.898529 C850.206553,397.114494 851.206542,397.337712 852.140677,397.309119 C853.935531,397.254178 855.486346,396.764751 856.881903,395.845292 C858.352084,394.876658 859.326311,393.248215 859.479739,391.475669 C859.55906,390.559456 859.474386,389.581188 859.005644,388.852486 C858.787019,388.512618 858.546847,388.199513 858.290202,387.910581 C858.149483,387.752181 857.244493,387.087536 857.244493,386.987738 C856.816015,386.926477 856.408395,386.564716 856.001327,386.400687 C855.48272,386.191732 854.929926,386.083784 854.375785,386.020831 C853.51952,385.923519 851.754743,385.847271 851.132262,386.469752 C852.278496,386.696353 853.604297,387.138713 853.931249,388.415582 C854.235065,389.602046 853.605713,391.031893 852.983681,392.007951 C852.40592,392.914529 851.572136,393.798351 850.669252,394.376733 M842.464637,401.560399 C843.60127,402.355231 844.795157,402.877188 846.057765,403.28764 C846.74299,403.510374 847.480464,403.596014 848.241212,403.6801 C848.962662,403.75987 850.084688,403.85701 850.752406,403.632342 C850.685828,403.413096 850.132101,403.366305 849.955848,403.301211 C849.563042,403.156071 849.191819,402.939174 848.835583,402.720411 C848.273362,402.375156 847.768706,402.019715 847.330283,401.653982 C846.421149,400.895513 845.626939,399.7537 845.185166,398.629602 C844.057546,395.760411 844.20348,392.540371 845.84798,389.907174 C846.778041,388.417896 848.046484,387.453338 849.509241,386.746011 C851.534357,385.766742 853.91167,385.426667 856.1119,386.103018 C856.797229,386.313735 857.244216,386.587369 857.831543,387.039536 C858.169995,387.300152 858.559831,387.732014 858.820308,388.058656 C859.00074,388.284912 859.174887,388.678132 859.3855,388.783421 C859.3855,388.421246 858.601926,386.746011 858.245931,386.746011 C858.094472,386.123841 857.033016,385.34113 856.536924,385.000848 C856.180308,384.756256 855.669747,384.535525 855.241615,384.294212 C854.085713,383.642759 852.548504,383.281654 850.949103,383.067623 C849.23647,382.838397 847.551601,383.23583 846.021471,383.603565 C845.028147,383.842287 844.116113,384.408929 843.310196,384.915381 C842.499963,385.424561 841.921926,386.015582 841.390024,386.534362 C840.02154,387.869142 838.992234,390.010425 838.666075,391.891335 C838.045114,395.471997 839.61133,399.565257 842.464637,401.560399" id="网校-ico"></path>
        </g>
    </g>
</svg>