<?xml version="1.0" encoding="UTF-8"?>
<svg width="24px" height="20px" viewBox="0 0 24 20" version="1.1" xmlns="http://www.w3.org/2000/svg" xmlns:xlink="http://www.w3.org/1999/xlink">
    <!-- Generator: Sketch 41.2 (35397) - http://www.bohemiancoding.com/sketch -->
    <title>微信ico</title>
    <desc>Created with Sketch.</desc>
    <defs></defs>
    <g id="Page-1" stroke="none" stroke-width="1" fill="none" fill-rule="evenodd">
        <g id="pc-登录" transform="translate(-839.000000, -314.000000)" fill="#2CCD25">
            <path d="M858.113094,325.472066 C857.694754,325.472066 857.268521,325.052107 857.268521,324.623243 C857.268521,324.200248 857.693135,323.774015 858.113094,323.774015 C858.752039,323.774015 859.176653,324.200248 859.176653,324.623243 C859.176653,325.052107 858.752039,325.472066 858.113094,325.472066 M853.440518,325.472066 C853.019143,325.472066 852.591695,325.052107 852.591695,324.623243 C852.591695,324.200248 853.019143,323.774015 853.440518,323.774015 C854.085737,323.774015 854.504077,324.200248 854.504077,324.623243 C854.504077,325.052107 854.085737,325.472066 853.440518,325.472066 M863,326.535625 C863,323.139725 859.601267,320.372043 855.783586,320.372043 C851.741253,320.372043 848.559482,323.141142 848.559482,326.535625 C848.559482,329.940632 851.742467,332.699206 855.783586,332.699206 C856.629576,332.699206 857.483054,332.487709 858.33208,332.274592 L860.661587,333.552685 L860.022642,331.428603 C861.72798,330.147677 863,328.451245 863,326.535625 M844.734515,319.734515 C844.097189,319.734515 843.455006,319.308484 843.455006,318.672575 C843.455006,318.03363 844.097189,317.612052 844.734515,317.612052 C845.372043,317.612052 845.795038,318.032011 845.795038,318.672575 C845.795038,319.308484 845.372043,319.734515 844.734515,319.734515 M850.679111,317.612052 C851.321092,317.612052 851.742467,318.03363 851.742467,318.672575 C851.742467,319.308484 851.321092,319.734515 850.679111,319.734515 C850.044619,319.734515 849.405674,319.308484 849.405674,318.672575 C849.405674,318.032011 850.042999,317.612052 850.679111,317.612052 M855.245027,319.914642 C855.521086,319.914642 855.792491,319.935691 856.065718,319.965644 C855.330638,316.542624 851.672036,314 847.494506,314 C842.824966,314 839,317.181569 839,321.224105 C839,323.556648 840.27202,325.472066 842.398936,326.960239 L841.550113,329.514602 L844.519982,328.026631 C845.582124,328.235093 846.433983,328.451245 847.494506,328.451245 C847.761661,328.451245 848.025577,328.439102 848.28666,328.41947 C848.12151,327.851159 848.023958,327.257145 848.023958,326.637629 C848.025577,322.926608 851.211396,319.914642 855.245027,319.914642" id="微信ico"></path>
        </g>
    </g>
</svg>